# File created by Blade
# Date/Time:  Tue Jan 27 18:12:42 2015
# Frame Rate: 120.000 fps
#------------------------------------------------------
:FULLY-SPECIFIED
:DEGREES
2629
root -1.395052 31.793555 -6.641365 6.143572 8.491724 3.423883
Spine -7.631100 -10.492953 -2.649054
Head 18.154518 -47.528778 -4.169222
LeftShoulder -14.333098 18.413692 3.953558
LeftArm 27.864623 41.277911 -65.340237
LeftForeArm -0.885561 0.000000 15.845285
LeftHand -10.922636 -0.000000 -4.891296
LeftHandThumb1 -26.253704 0.000000 33.147579
RightShoulder -7.018791 5.637207 -14.937818
RightArm 5.071263 15.190980 49.122036
RightForeArm 22.403183 -0.000000 104.168288
RightHand -9.080330 -0.000000 12.202144
RightHandThumb1 -24.326973 -0.000000 -32.862282
LeftUpLeg -2.258838 -1.336130 -1.132977
LeftLeg 1.423677 -0.000000 -0.000000
LeftFoot -18.074976 15.640390 -24.419109
LeftToeBase 8.748064 -0.000000 -0.000000
RightUpLeg 0.962792 -4.623828 -3.819220
RightLeg -3.042511 -0.000000 0.000000
RightFoot -16.131102 -14.557574 10.032896
RightToeBase 5.193788 -0.000000 -0.000000
2630
root -1.394804 31.794049 -6.640196 6.148231 8.486170 3.429232
Spine -7.637776 -10.560093 -2.618633
Head 18.195766 -47.508173 -4.240189
LeftShoulder -14.344341 18.388703 3.907155
LeftArm 27.883179 41.236843 -65.290297
LeftForeArm -0.915142 0.000000 15.916480
LeftHand -10.855940 -0.000000 -4.780407
LeftHandThumb1 -26.253704 0.000000 33.147579
RightShoulder -6.926207 6.118032 -14.964882
RightArm 4.613980 17.008922 49.597408
RightForeArm 22.457207 -0.000000 104.508201
RightHand -8.968840 -0.000000 11.869349
RightHandThumb1 -24.326973 -0.000000 -32.862282
LeftUpLeg -2.259817 -1.347722 -1.138643
LeftLeg 1.420634 -0.000000 -0.000000
LeftFoot -18.083733 15.653436 -24.450952
LeftToeBase 8.781969 -0.000000 -0.000000
RightUpLeg 0.962670 -4.603415 -3.823409
RightLeg -3.046144 -0.000000 0.000000
RightFoot -16.139093 -14.584465 10.034433
RightToeBase 5.206782 -0.000000 -0.000000
2631
root -1.394791 31.794111 -6.638660 6.152641 8.484803 3.433019
Spine -7.643206 -10.606263 -2.593831
Head 18.229218 -47.495818 -4.299835
LeftShoulder -14.340288 18.372773 3.870758
LeftArm 27.903743 41.193232 -65.246710
LeftForeArm -0.924466 -0.000000 16.014328
LeftHand -10.898404 -0.000000 -4.746277
LeftHandThumb1 -26.253704 0.000000 33.147579
RightShoulder -6.921796 6.457977 -14.913835
RightArm 4.392272 18.896068 50.065936
RightForeArm 22.584839 0.000000 104.811390
RightHand -8.934957 -0.000000 11.646164
RightHandThumb1 -24.326973 -0.000000 -32.862282
LeftUpLeg -2.263580 -1.347803 -1.140675
LeftLeg 1.427736 -0.000000 -0.000000
LeftFoot -18.074660 15.649061 -24.447179
LeftToeBase 8.711285 -0.000000 -0.000000
RightUpLeg 0.962367 -4.600886 -3.826761
RightLeg -3.048463 -0.000000 0.000000
RightFoot -16.142427 -14.587818 10.034214
RightToeBase 5.188063 -0.000000 -0.000000
2632
root -1.395071 31.794231 -6.637313 6.152797 8.477307 3.429996
Spine -7.660344 -10.653718 -2.575866
Head 18.347816 -47.480942 -4.391279
LeftShoulder -14.313252 18.369778 3.863264
LeftArm 27.920550 41.159515 -65.238504
LeftForeArm -1.000811 -0.000000 16.081358
LeftHand -10.878058 -0.000000 -4.611639
LeftHandThumb1 -26.253704 0.000000 33.147579
RightShoulder -6.924400 6.694689 -14.879692
RightArm 4.332567 20.840429 50.663085
RightForeArm 22.814402 -0.000000 105.016036
RightHand -8.867149 0.000000 11.508683
RightHandThumb1 -24.326973 -0.000000 -32.862282
LeftUpLeg -2.259510 -1.354190 -1.136500
LeftLeg 1.423636 -0.000000 -0.000000
LeftFoot -18.068872 15.667095 -24.412580
LeftToeBase 8.689318 -0.000000 -0.000000
RightUpLeg 0.966927 -4.568084 -3.824174
RightLeg -3.055218 -0.000000 0.000000
RightFoot -16.143296 -14.601880 10.066088
RightToeBase 5.178952 -0.000000 -0.000000
2633
root -1.394068 31.793858 -6.636400 6.152758 8.473689 3.430280
Spine -7.673185 -10.709658 -2.574425
Head 18.475432 -47.473644 -4.440793
LeftShoulder -14.292815 18.352764 3.892043
LeftArm 27.949496 41.122650 -65.276293
LeftForeArm -1.026750 -0.000000 16.087924
LeftHand -10.870788 -0.000000 -4.574488
LeftHandThumb1 -26.253704 0.000000 33.147579
RightShoulder -6.939816 6.978093 -14.775223
RightArm 4.306199 22.736154 51.226518
RightForeArm 23.005192 -0.000000 105.231182
RightHand -8.844675 -0.000000 11.327939
RightHandThumb1 -24.326973 -0.000000 -32.862282
LeftUpLeg -2.257184 -1.354173 -1.139283
LeftLeg 1.425536 -0.000000 -0.000000
LeftFoot -18.075434 15.667463 -24.406322
LeftToeBase 8.708580 -0.000000 -0.000000
RightUpLeg 0.965271 -4.576143 -3.827027
RightLeg -3.048334 -0.000000 0.000000
RightFoot -16.151425 -14.593194 10.056849
RightToeBase 5.195542 -0.000000 -0.000000
2634
root -1.394137 31.792778 -6.634602 6.152864 8.461197 3.425233
Spine -7.691527 -10.746223 -2.599330
Head 18.626792 -47.468977 -4.425493
LeftShoulder -14.257445 18.355916 3.967337
LeftArm 27.980749 41.068366 -65.355743
LeftForeArm -0.889377 -0.000000 16.092007
LeftHand -10.903439 -0.000000 -4.711810
LeftHandThumb1 -26.253704 0.000000 33.147579
RightShoulder -6.964171 7.295815 -14.554737
RightArm 4.297052 24.566152 51.623287
RightForeArm 23.349282 -0.000000 105.417781
RightHand -8.837883 -0.000000 11.035341
RightHandThumb1 -24.326973 -0.000000 -32.862282
LeftUpLeg -2.252805 -1.361433 -1.133087
LeftLeg 1.425760 -0.000000 -0.000000
LeftFoot -18.106174 15.667192 -24.432820
LeftToeBase 8.749898 -0.000000 -0.000000
RightUpLeg 0.970285 -4.544401 -3.821960
RightLeg -3.060217 -0.000000 0.000000
RightFoot -16.142714 -14.621133 10.035208
RightToeBase 5.178288 -0.000000 -0.000000
2635
root -1.394663 31.793406 -6.632407 6.145823 8.446300 3.426166
Spine -7.706723 -10.781517 -2.575060
Head 18.762648 -47.433362 -4.584816
LeftShoulder -14.196461 18.304052 3.975412
LeftArm 27.957139 41.117521 -65.361183
LeftForeArm -1.042500 0.000000 16.132400
LeftHand -10.836388 -0.000000 -4.591422
LeftHandThumb1 -26.253704 0.000000 33.147579
RightShoulder -6.930466 7.743482 -14.539513
RightArm 4.027605 26.245356 52.133264
RightForeArm 23.452210 -0.000000 105.736328
RightHand -8.822498 -0.000000 10.609524
RightHandThumb1 -24.326973 -0.000000 -32.862282
LeftUpLeg -2.240628 -1.341058 -1.134714
LeftLeg 1.421860 -0.000000 -0.000000
LeftFoot -18.078886 15.687125 -24.375382
LeftToeBase 8.710954 -0.000000 -0.000000
RightUpLeg 0.978796 -4.531163 -3.822966
RightLeg -3.060848 -0.000000 0.000000
RightFoot -16.148518 -14.612635 10.056406
RightToeBase 5.235056 -0.000000 -0.000000
2636
root -1.388696 31.794366 -6.625159 6.102973 8.427607 3.437843
Spine -7.705829 -10.840066 -2.543870
Head 18.947008 -47.357661 -4.805307
LeftShoulder -14.174454 18.276540 3.940853
LeftArm 27.925709 41.093863 -65.400420
LeftForeArm -1.026473 -0.000000 16.182564
LeftHand -10.869034 -0.000000 -4.578232
LeftHandThumb1 -26.253704 0.000000 33.147579
RightShoulder -6.864732 8.028280 -14.510542
RightArm 3.937200 28.034248 52.765121
RightForeArm 23.700721 -0.000000 105.996756
RightHand -8.755984 -0.000000 10.377018
RightHandThumb1 -24.326973 -0.000000 -32.862282
LeftUpLeg -2.167308 -1.367179 -1.160607
LeftLeg 1.394830 -0.000000 -0.000000
LeftFoot -18.094815 15.732734 -24.401401
LeftToeBase 8.730357 -0.000000 -0.000000
RightUpLeg 1.042269 -4.562831 -3.852451
RightLeg -3.075419 -0.000000 0.000000
RightFoot -16.142289 -14.547801 10.076544
RightToeBase 5.203418 -0.000000 -0.000000
2637
root -1.389281 31.794112 -6.621734 6.090426 8.411251 3.435997
Spine -7.710804 -10.889053 -2.533510
Head 19.039228 -47.301231 -4.875153
LeftShoulder -14.162084 18.239078 3.952710
LeftArm 27.960752 41.119317 -65.402015
LeftForeArm -0.998590 -0.000000 16.190124
LeftHand -10.881236 -0.000000 -4.600547
LeftHandThumb1 -26.253704 0.000000 33.147579
RightShoulder -6.850681 8.432112 -14.433771
RightArm 3.823974 29.648002 53.305543
RightForeArm 23.828673 0.000000 106.229076
RightHand -8.588340 -0.000000 10.053101
RightHandThumb1 -24.326973 -0.000000 -32.862282
LeftUpLeg -2.145723 -1.379168 -1.157419
LeftLeg 1.393709 -0.000000 -0.000000
LeftFoot -18.105404 15.747328 -24.414837
LeftToeBase 8.697305 -0.000000 -0.000000
RightUpLeg 1.060479 -4.552801 -3.851008
RightLeg -3.081574 -0.000000 0.000000
RightFoot -16.141228 -14.545033 10.067530
RightToeBase 5.200083 -0.000000 -0.000000
2638
root -1.390064 31.794482 -6.619877 6.079774 8.386538 3.435973
Spine -7.727360 -10.911179 -2.531313
Head 19.177836 -47.249177 -4.976644
LeftShoulder -14.114068 18.189446 3.985873
LeftArm 27.996332 41.197695 -65.399659
LeftForeArm -1.062141 0.000000 16.167137
LeftHand -10.883813 -0.000000 -4.575677
LeftHandThumb1 -26.253704 0.000000 33.147579
RightShoulder -6.849249 8.730828 -14.360847
RightArm 3.806532 31.207785 53.930187
RightForeArm 23.898939 -0.000000 106.476196
RightHand -8.527575 -0.000000 9.482005
RightHandThumb1 -24.326973 -0.000000 -32.862282
LeftUpLeg -2.130107 -1.367566 -1.159882
LeftLeg 1.394695 -0.000000 -0.000000
LeftFoot -18.117126 15.762222 -24.427158
LeftToeBase 8.676262 -0.000000 -0.000000
RightUpLeg 1.073327 -4.530418 -3.852834
RightLeg -3.089708 -0.000000 0.000000
RightFoot -16.126525 -14.544808 10.068920
RightToeBase 5.162336 -0.000000 -0.000000
2639
root -1.392137 31.794205 -6.618489 6.071223 8.361047 3.430936
Spine -7.739554 -10.955598 -2.521284
Head 19.274823 -47.171459 -5.050157
LeftShoulder -14.097499 18.177944 3.999003
LeftArm 28.058286 41.223924 -65.378861
LeftForeArm -1.080092 -0.000000 16.179476
LeftHand -10.847166 -0.000000 -4.715896
LeftHandThumb1 -26.253704 0.000000 33.147579
RightShoulder -6.835565 8.999783 -14.281559
RightArm 3.814274 32.729429 54.525855
RightForeArm 24.048890 -0.000000 106.678769
RightHand -8.286829 -0.000000 9.090048
RightHandThumb1 -24.326973 -0.000000 -32.862282
LeftUpLeg -2.124984 -1.359710 -1.153436
LeftLeg 1.408541 -0.000000 -0.000000
LeftFoot -18.145564 15.766491 -24.458451
LeftToeBase 8.739367 -0.000000 -0.000000
RightUpLeg 1.082905 -4.460421 -3.847517
RightLeg -3.098144 -0.000000 0.000000
RightFoot -16.130609 -14.588016 10.068654
RightToeBase 5.192710 -0.000000 -0.000000
2640
root -1.394115 31.794414 -6.615301 6.066390 8.331959 3.422879
Spine -7.757806 -10.993244 -2.512272
Head 19.360128 -47.098657 -5.110494
LeftShoulder -14.095873 18.130149 4.002546
LeftArm 28.077502 41.256862 -65.386179
LeftForeArm -1.038442 -0.000000 16.198779
LeftHand -10.887234 0.000000 -4.722437
LeftHandThumb1 -26.253704 0.000000 33.147579
RightShoulder -6.828609 9.334403 -14.188052
RightArm 3.782320 34.263477 55.138033
RightForeArm 24.508991 -0.000000 106.941978
RightHand -8.363369 0.000000 8.943350
RightHandThumb1 -24.326973 -0.000000 -32.862282
LeftUpLeg -2.111119 -1.366939 -1.144500
LeftLeg 1.405261 -0.000000 -0.000000
LeftFoot -18.142885 15.814798 -24.410966
LeftToeBase 8.698146 -0.000000 -0.000000
RightUpLeg 1.089073 -4.446770 -3.839898
RightLeg -3.102169 -0.000000 0.000000
RightFoot -16.131210 -14.558709 10.085483
RightToeBase 5.223075 -0.000000 -0.000000
